<svg width="512" height="512" viewBox="0 0 512 512" fill="none" xmlns="http://www.w3.org/2000/svg">
<path d="M256 0C256 0 200 80 200 144C200 188.183 235.817 224 280 224C293.255 224 305.748 220.771 316.667 215.061C305.47 249.233 273.432 272 236 272C194.026 272 160 237.974 160 196C160 184.954 151.046 176 140 176C128.954 176 120 184.954 120 196C120 260.072 171.928 312 236 312C281.365 312 320.672 284.093 339.919 244.757C347.882 259.986 352 277.29 352 296C352 384.366 280.366 456 192 456C160.77 456 131.968 447.031 107.593 431.583C143.5 500.5 214.5 512 256 512C362.051 512 448 426.051 448 320C448 143.269 256 0 256 0Z" fill="url(#paint0_linear_1_2)"/>
<defs>
<linearGradient id="paint0_linear_1_2" x1="256" y1="0" x2="256" y2="512" gradientUnits="userSpaceOnUse">
<stop stop-color="#FFEB3B"/>
<stop offset="0.5" stop-color="#FF9800"/>
<stop offset="1" stop-color="#F44336"/>
</linearGradient>
</defs>
</svg>
